<?xml version="1.0" encoding="utf-8"?>
<!-- Generator: Adobe Illustrator 15.0.0, SVG Export Plug-In . SVG Version: 6.00 Build 0)  -->
<!DOCTYPE svg PUBLIC "-//W3C//DTD SVG 1.1//EN" "http://www.w3.org/Graphics/SVG/1.1/DTD/svg11.dtd">
<svg version="1.1" id="Layer_1" xmlns="http://www.w3.org/2000/svg" xmlns:xlink="http://www.w3.org/1999/xlink" x="0px" y="0px"
	 width="70.465px" height="72.775px" viewBox="0 0 70.465 72.775" enable-background="new 0 0 70.465 72.775" xml:space="preserve">
<g>
	<g>
		<g>
			<g>
				<path d="M47.313,42.819c-1.5-0.798-2.639-1.793-3.418-2.986c-0.26,0.605-0.742,1.266-1.45,1.981
					c-0.708,0.715-1.38,1.236-2.015,1.564l-1.415-1.502c1.033-0.406,1.929-1.085,2.687-2.035c0.758-0.951,1.137-1.938,1.137-2.961
					v0.228h-3.156v-1.773h8.235v1.773h-3.076v-0.304c0,0.973,0.345,1.853,1.032,2.639c0.689,0.785,1.594,1.373,2.711,1.764
					L47.313,42.819z"/>
			</g>
			<g>
				<path d="M40.403,43.535l-1.608-1.707l0.175-0.068c1.007-0.396,1.894-1.069,2.634-1.998c0.648-0.813,1.016-1.662,1.094-2.526
					h-3.141v-2.027h8.485v2.027H44.99c0.088,0.769,0.416,1.482,0.978,2.124c0.671,0.766,1.564,1.347,2.657,1.729l0.168,0.059
					l-1.447,1.834l-0.092-0.049c-1.434-0.762-2.556-1.719-3.339-2.844c-0.281,0.563-0.745,1.172-1.382,1.816
					c-0.714,0.722-1.402,1.256-2.047,1.588L40.403,43.535z M39.232,41.926l1.223,1.297c0.598-0.322,1.236-0.826,1.9-1.498
					c0.693-0.7,1.172-1.354,1.424-1.941l0.093-0.215l0.127,0.195c0.747,1.146,1.851,2.119,3.28,2.895l1.098-1.391
					c-1.059-0.396-1.932-0.98-2.597-1.74c-0.604-0.689-0.954-1.459-1.042-2.292h-0.012l-0.012-0.127v-0.304h0.251
					c0,0.06,0.001,0.119,0.004,0.178h2.821v-1.52h-7.984v1.52h2.904c0.001-0.034,0.002-0.067,0.002-0.101h0.25v0.354h-0.016
					c-0.077,0.924-0.463,1.827-1.148,2.687C41.072,40.832,40.209,41.506,39.232,41.926z"/>
			</g>
		</g>
		<g>
			<g>
				<path d="M41.7,50.47v-6.024h1.955v1.164h5.985v-1.164h1.939v6.024H41.7z M49.641,47.382h-5.985v1.349h5.985V47.382z"/>
			</g>
			<g>
				<path d="M51.705,50.597h-10.13v-6.278h2.206v1.163h5.734v-1.163h2.189V50.597z M41.825,50.343h9.63v-5.771h-1.689v1.163H43.53
					v-1.163h-1.705V50.343z M49.766,48.857H43.53v-1.604h6.235V48.857z M43.781,48.604h5.734v-1.096h-5.734V48.604z"/>
			</g>
		</g>
		<g>
			<g>
				<rect x="49.641" y="34.452" width="1.955" height="8.79"/>
			</g>
			<g>
				<path d="M51.721,43.369h-2.205v-9.044h2.205V43.369z M49.766,43.114h1.705V34.58h-1.705V43.114z"/>
			</g>
		</g>
		<g>
			<g>
				<path d="M33.93,25.331c-0.933,0.164-1.806,0.26-2.619,0.288c-0.813,0.029-2.847,0.043-6.101,0.043v-6.358h4.952v-2.749h-4.92
					v-1.79h6.891v6.312h-4.959v2.812c3.502,0.034,5.669-0.059,6.502-0.28L33.93,25.331z"/>
			</g>
			<g>
				<path d="M25.211,25.788h-0.125v-6.612h4.952v-2.495h-4.92v-2.044h7.142v6.565h-4.96v2.559c3.403,0.032,5.538-0.063,6.345-0.277
					l0.135-0.036l0.293,1.985l-0.121,0.021c-0.933,0.164-1.82,0.262-2.636,0.29C30.5,25.774,28.503,25.788,25.211,25.788z
					 M25.336,19.43v6.104c3.215,0,5.168-0.014,5.97-0.042c0.77-0.027,1.604-0.116,2.481-0.266l-0.216-1.462
					c-0.928,0.202-3.03,0.285-6.399,0.251l-0.124-0.001V20.95h4.959v-6.058h-6.641v1.537h4.92v3.002H25.336z"/>
			</g>
		</g>
		<g>
			<g>
				<rect x="34.951" y="13.5" width="1.971" height="16.365"/>
			</g>
			<g>
				<path d="M37.047,29.992h-2.221V13.373h2.221V29.992z M35.076,29.739h1.721V13.627h-1.721V29.739z"/>
			</g>
		</g>
		<g>
			<g>
				<path d="M47.955,25.089c-1.188,0.175-2.943,0.263-5.74,0.263h-2.313V15.14h6.912v1.79h-4.926v6.649h0.771
					c2.475,0,4.021-0.082,5.112-0.246L47.955,25.089z"/>
			</g>
			<g>
				<path d="M42.215,25.479h-2.438V15.013h7.163v2.044h-4.926v6.396h0.646c2.397,0,3.968-0.075,5.095-0.245l0.129-0.02l0.209,2.009
					l-0.119,0.018C46.734,25.398,44.959,25.479,42.215,25.479z M40.027,25.226h2.188c2.607,0,4.395-0.078,5.603-0.245l-0.156-1.503
					c-1.129,0.158-2.682,0.229-5.002,0.229h-0.896v-6.903h4.926v-1.536h-6.662V25.226z"/>
			</g>
		</g>
		<g>
			<g>
				<polygon points="50.939,21.492 50.939,29.866 48.953,29.866 48.953,13.5 50.939,13.5 50.939,19.702 53.043,19.702 
					53.043,21.492 				"/>
			</g>
			<g>
				<path d="M51.064,29.992h-2.236V13.373h2.236v6.202h2.104v2.044h-2.104V29.992z M49.078,29.739h1.736v-8.374h2.103v-1.536h-2.103
					v-6.202h-1.736V29.739z"/>
			</g>
		</g>
		<g>
			<g>
				<path d="M21.185,19.006v-3.928H11.098v1.756h8.083v2.766c0,1.74-0.078,3.307-0.231,4.706h1.952
					C21.09,22.422,21.185,20.654,21.185,19.006z"/>
			</g>
			<g>
				<path d="M21.016,24.433h-2.205l0.016-0.141c0.153-1.396,0.23-2.976,0.23-4.692v-2.639h-8.084v-2.01H21.31v4.055
					c0,1.64-0.095,3.427-0.283,5.313L21.016,24.433z M19.09,24.179h1.699c0.179-1.835,0.271-3.575,0.271-5.173v-3.801h-9.836v1.502
					h8.083v2.893C19.307,21.269,19.234,22.809,19.09,24.179z"/>
			</g>
		</g>
		<g>
			<g>
				<rect x="9.191" y="25.352" width="13.649" height="1.761"/>
			</g>
			<g>
				<path d="M22.965,27.24H9.065v-2.014h13.899V27.24z M9.316,26.986h13.398v-1.506H9.316V26.986z"/>
			</g>
		</g>
		<g>
			<g>
				<rect x="9.156" y="47.938" width="27.766" height="1.76"/>
			</g>
			<g>
				<path d="M37.047,49.824H9.031v-2.014h28.016V49.824z M9.282,49.57h27.515v-1.506H9.282V49.57z"/>
			</g>
		</g>
	</g>
	<g>
		<path d="M62.315,0h-0.1h-0.394H0.007v64.035h0.006L0,64.049l8.495,8.613l0.111,0.113h0.792h59.066h0.955h1.047v-0.17v-0.799
			v-0.842v-0.221v-6.775v-0.842v-6.996V55.29v-6.996v-0.842v-6.997v-0.841v-6.996v-0.842v-6.996v-0.842v-6.996v-0.842v-4.986V8.685
			v-0.42L62.315,0z M2.01,2.031h58.203v6.003v0.544v7.293v0.544v7.293v0.544v7.293v0.544v7.293v0.544v7.293v0.545v7.293v0.545v6.401
			H2.01V2.031z M9.436,70.744l-6.616-6.709h57.979l6.615,6.709H9.436z M68.463,68.934L62.216,62.6v-4.965l6.247,6.334V68.934z
			 M68.463,61.096l-6.247-6.334v-4.965l6.247,6.334V61.096z M68.463,53.259L68.463,53.259l-6.247-6.335l0,0v-4.965l6.247,6.335
			V53.259z M68.463,45.422l-6.247-6.335v-4.965l6.247,6.333V45.422z M68.463,37.584l-6.247-6.335v-4.965l6.247,6.334V37.584z
			 M68.463,29.746L68.463,29.746l-6.247-6.334v0v-4.965l6.247,6.334V29.746z M68.463,21.909l-6.247-6.335v-4.965l6.247,6.334V21.909
			z M68.463,14.071l-6.247-6.334V2.771l6.247,6.334V14.071z"/>
	</g>
</g>
</svg>
