<?xml version="1.0" encoding="utf-8"?>
<!-- Generator: Adobe Illustrator 15.0.0, SVG Export Plug-In . SVG Version: 6.00 Build 0)  -->
<!DOCTYPE svg PUBLIC "-//W3C//DTD SVG 1.1//EN" "http://www.w3.org/Graphics/SVG/1.1/DTD/svg11.dtd">
<svg version="1.1" id="Layer_1" xmlns="http://www.w3.org/2000/svg" xmlns:xlink="http://www.w3.org/1999/xlink" x="0px" y="0px"
	 width="299.249px" height="63.887px" viewBox="0 0 299.249 63.887" enable-background="new 0 0 299.249 63.887"
	 xml:space="preserve">
<g>
	<g>
		<g>
			<g>
				<path d="M41.534,37.59c-1.317-0.7-2.316-1.574-3.001-2.622c-0.228,0.532-0.651,1.111-1.273,1.739
					c-0.621,0.629-1.211,1.086-1.768,1.373l-1.242-1.317c0.906-0.357,1.692-0.953,2.357-1.787c0.666-0.835,0.998-1.7,0.998-2.599
					v0.2h-2.771V31.02h7.229v1.557h-2.7v-0.267c0,0.854,0.303,1.626,0.906,2.316c0.604,0.69,1.398,1.207,2.38,1.549L41.534,37.59z"
					/>
			</g>
			<g>
				<path d="M35.469,38.219l-1.412-1.5l0.153-0.06c0.884-0.349,1.662-0.938,2.313-1.753c0.569-0.714,0.892-1.459,0.96-2.219h-2.757
					v-1.779h7.448v1.779h-2.679c0.077,0.676,0.365,1.301,0.858,1.864c0.589,0.672,1.373,1.183,2.332,1.517l0.148,0.053l-1.271,1.609
					l-0.08-0.042c-1.259-0.669-2.243-1.509-2.932-2.497c-0.246,0.494-0.653,1.029-1.213,1.594c-0.626,0.635-1.23,1.104-1.797,1.395
					L35.469,38.219z M34.44,36.805l1.073,1.139c0.525-0.283,1.086-0.725,1.669-1.314c0.608-0.615,1.028-1.189,1.249-1.705
					l0.082-0.188l0.111,0.171c0.656,1.006,1.625,1.86,2.88,2.541l0.964-1.221c-0.93-0.348-1.696-0.86-2.28-1.527
					c-0.529-0.604-0.837-1.281-0.914-2.012h-0.011l-0.01-0.111v-0.267h0.22c0,0.053,0.001,0.104,0.004,0.156h2.477v-1.334h-7.01
					v1.334h2.55c0.001-0.029,0.002-0.059,0.002-0.088h0.22v0.311h-0.014c-0.068,0.811-0.407,1.604-1.009,2.358
					C36.056,35.846,35.298,36.436,34.44,36.805z"/>
			</g>
		</g>
		<g>
			<g>
				<path d="M36.607,44.305v-5.288h1.716v1.021h5.255v-1.021h1.702v5.288H36.607z M43.578,41.595h-5.255v1.185h5.255V41.595z"/>
			</g>
			<g>
				<path d="M45.39,44.417h-8.893v-5.513h1.937v1.021h5.034v-1.021h1.922V44.417z M36.717,44.193h8.453v-5.065h-1.482v1.021h-5.474
					v-1.021h-1.497V44.193z M43.688,42.891h-5.474v-1.408h5.474V42.891z M38.434,42.667h5.034v-0.962h-5.034V42.667z"/>
			</g>
		</g>
		<g>
			<g>
				<rect x="43.578" y="30.244" width="1.716" height="7.716"/>
			</g>
			<g>
				<path d="M45.403,38.072h-1.936v-7.939h1.936V38.072z M43.688,37.848h1.496v-7.492h-1.496V37.848z"/>
			</g>
		</g>
		<g>
			<g>
				<path d="M29.785,22.237c-0.817,0.144-1.584,0.228-2.298,0.253c-0.714,0.025-2.499,0.038-5.355,0.038v-5.582h4.347v-2.413h-4.319
					v-1.571h6.05v5.541h-4.354v2.468c3.075,0.029,4.978-0.052,5.708-0.246L29.785,22.237z"/>
			</g>
			<g>
				<path d="M22.132,22.638h-0.11v-5.804h4.347v-2.19H22.05V12.85h6.27v5.763h-4.354v2.247c2.987,0.028,4.862-0.055,5.57-0.243
					l0.118-0.031l0.258,1.743l-0.106,0.019c-0.819,0.144-1.598,0.229-2.314,0.254C26.774,22.626,25.022,22.638,22.132,22.638z
					 M22.241,17.057v5.358c2.822,0,4.538-0.013,5.241-0.037c0.676-0.023,1.409-0.102,2.179-0.233l-0.189-1.284
					c-0.814,0.177-2.66,0.25-5.618,0.221l-0.108-0.001v-2.689H28.1v-5.318h-5.83v1.349h4.319v2.635H22.241z"/>
			</g>
		</g>
		<g>
			<g>
				<rect x="30.683" y="11.852" width="1.729" height="14.366"/>
			</g>
			<g>
				<path d="M32.521,26.329h-1.949V11.74h1.949V26.329z M30.792,26.106h1.511V11.963h-1.511V26.106z"/>
			</g>
		</g>
		<g>
			<g>
				<path d="M42.098,22.025c-1.042,0.154-2.584,0.23-5.039,0.23h-2.03v-8.965h6.068v1.571h-4.324v5.837h0.677
					c2.172,0,3.529-0.072,4.487-0.216L42.098,22.025z"/>
			</g>
			<g>
				<path d="M37.059,22.368h-2.141v-9.188h6.288v1.794h-4.324v5.615h0.567c2.104,0,3.482-0.066,4.472-0.215l0.113-0.017l0.184,1.764
					l-0.104,0.016C41.026,22.296,39.468,22.368,37.059,22.368z M35.139,22.145h1.92c2.289,0,3.858-0.068,4.918-0.215l-0.137-1.32
					c-0.991,0.139-2.354,0.201-4.391,0.201h-0.786v-6.06h4.323v-1.348h-5.848V22.145z"/>
			</g>
		</g>
		<g>
			<g>
				<polygon points="44.718,18.867 44.718,26.218 42.974,26.218 42.974,11.852 44.718,11.852 44.718,17.296 46.564,17.296 
					46.564,18.867 				"/>
			</g>
			<g>
				<path d="M44.827,26.329h-1.963V11.74h1.963v5.444h1.847v1.794h-1.847V26.329z M43.084,26.106h1.524v-7.351h1.846v-1.349h-1.846
					v-5.444h-1.524V26.106z"/>
			</g>
		</g>
		<g>
			<g>
				<path d="M18.598,16.685v-3.449H9.742v1.542h7.097v2.428c0,1.527-0.068,2.903-0.202,4.131h1.713
					C18.514,19.683,18.598,18.131,18.598,16.685z"/>
			</g>
			<g>
				<path d="M18.449,21.449h-1.937l0.014-0.124c0.134-1.226,0.203-2.612,0.203-4.119V14.89H9.633v-1.764h9.074v3.56
					c0,1.439-0.083,3.008-0.248,4.664L18.449,21.449z M16.758,21.226h1.492c0.158-1.611,0.237-3.138,0.237-4.541v-3.337H9.853v1.319
					h7.096v2.54C16.948,18.671,16.885,20.023,16.758,21.226z"/>
			</g>
		</g>
		<g>
			<g>
				<rect x="8.068" y="22.255" width="11.981" height="1.546"/>
			</g>
			<g>
				<path d="M20.16,23.913H7.958v-1.768H20.16V23.913z M8.179,23.69H19.94v-1.322H8.179V23.69z"/>
			</g>
		</g>
		<g>
			<g>
				<rect x="8.038" y="42.082" width="24.374" height="1.545"/>
			</g>
			<g>
				<path d="M32.521,43.739H7.928v-1.769h24.594V43.739z M8.147,43.516h24.155v-1.322H8.147V43.516z"/>
			</g>
		</g>
	</g>
	<g>
		<path d="M54.704,0h-0.087h-0.346H0.006v56.215h0.006L0,56.227l7.457,7.561l0.098,0.1h0.694h51.852h0.839h0.919v-0.148v-0.703
			v-0.738v-0.193v-5.947v-0.739v-6.142v-0.738v-6.142v-0.739v-6.143v-0.738v-6.141v-0.739v-6.141v-0.739v-6.142v-0.739V9.758V7.625
			V7.255L54.704,0z M1.765,1.783h51.094v5.27V7.53v6.402v0.478v6.402v0.478v6.403v0.478v6.402v0.478v6.402v0.479v6.402v0.478v5.62
			H1.765V1.783z M8.283,62.104l-5.809-5.889h50.898l5.807,5.889H8.283z M60.101,60.515l-5.483-5.562v-4.358l5.483,5.562V60.515z
			 M60.101,53.634l-5.483-5.561v-4.358l5.483,5.561V53.634z M60.101,46.754L60.101,46.754l-5.483-5.561l0,0v-4.359l5.483,5.562
			V46.754z M60.101,39.873l-5.483-5.561v-4.358l5.483,5.56V39.873z M60.101,32.993l-5.483-5.561v-4.358l5.483,5.561V32.993z
			 M60.101,26.113L60.101,26.113l-5.483-5.56v0v-4.359l5.483,5.561V26.113z M60.101,19.233l-5.483-5.562V9.313l5.483,5.561V19.233z
			 M60.101,12.352l-5.483-5.56V2.433l5.483,5.56V12.352z"/>
	</g>
</g>
<g>
	<path d="M89.172,18.048v0.98H76.19v-0.98h5.125v-5.174h1.174v5.174H89.172z M86.393,9.196h-8.804V8.216h9.976v1.445
		c0,1.751,0,3.727-0.529,6.587l-1.173-0.161c0.53-2.715,0.53-4.723,0.53-6.426V9.196z"/>
	<path d="M97.213,7.814c0,3.39-1.944,6.024-5.559,7.551l-0.579-0.867c2.988-1.237,4.691-3.246,4.917-5.72h-4.386V7.814H97.213z
		 M93.452,15.912h9.592v5.189h-1.172v-4.225h-8.42V15.912z M103.044,6.738v8.466h-1.124V11.38h-2.023v3.743h-1.11V7.011h1.11v3.39
		h2.023V6.738H103.044z"/>
	<path d="M117.396,13.838h-6.555v-6.12h6.555V13.838z M117.511,16.779c0.111,1.623,2.344,2.988,4.626,3.358l-0.45,0.916
		c-2.041-0.354-3.969-1.414-4.787-2.892c-0.787,1.494-2.716,2.522-4.772,2.875l-0.434-0.899c2.297-0.37,4.498-1.719,4.611-3.358
		h-4.08v-0.964h9.366v0.964H117.511z M116.257,8.666h-4.275v4.226h4.275V8.666z M123.485,10.24v0.98h-2.153v3.744h-1.172V6.738
		h1.172v3.502H123.485z"/>
	<path d="M132.073,14.819v1.639h4.289v4.435h-9.751v-4.435h4.289v-1.639h-5.896v-0.964h12.965v0.964H132.073z M125.792,12.056
		c2.602-0.241,4.964-1.317,5.06-3.004h-4.498V8.087h4.547V6.625h1.173v1.462h4.546v0.964h-4.498
		c0.097,1.687,2.459,2.763,5.045,3.004l-0.354,0.9c-2.313-0.241-4.467-1.093-5.335-2.555c-0.851,1.462-3.02,2.314-5.333,2.555
		L125.792,12.056z M135.223,17.422h-7.471v2.506h7.471V17.422z"/>
	<path d="M148.322,14.787c-2.121,0-3.713-1.446-3.713-3.519c0-2.072,1.592-3.518,3.713-3.518c2.136,0,3.726,1.446,3.726,3.518
		C152.048,13.341,150.458,14.787,148.322,14.787z M148.322,13.775c1.478,0,2.586-1.044,2.586-2.507c0-1.461-1.108-2.506-2.586-2.506
		c-1.463,0-2.57,1.044-2.57,2.506C145.752,12.73,146.859,13.775,148.322,13.775z M156.467,19.799v0.98h-9.623v-4.594H148v3.614
		H156.467z M156.017,17.277h-1.173V6.754h1.173V17.277z"/>
	<path d="M160.718,16.618c2.12,0,3.422-0.08,4.949-0.385l0.127,0.98c-1.654,0.321-3.004,0.386-5.302,0.386h-0.899V8.473h5.334v0.98
		h-4.209v2.908h3.519v0.964h-3.519V16.618z M167.209,7.091h1.107v13.254h-1.107V13.18h-2.187V12.2h2.187V7.091z M171.192,6.722
		v14.379h-1.124V6.722H171.192z"/>
	<path d="M175.844,16.635c2.377,0,4.53-0.113,7.133-0.531l0.112,0.997c-2.65,0.401-4.819,0.514-7.245,0.514h-1.189v-5.446h5.397
		V9.052h-5.43v-0.98h6.604v5.061h-5.382V16.635z M185.563,6.706v14.395h-1.172V6.706H185.563z"/>
	<path d="M200.368,6.722v14.396h-1.172v-7.889h-3.263c-0.111,2.827-1.542,4.611-3.534,4.611c-2.088,0-3.551-1.96-3.551-4.997
		c0-3.036,1.463-4.98,3.551-4.98c1.944,0,3.357,1.687,3.534,4.386h3.263V6.722H200.368z M194.842,12.843
		c0-2.361-1.013-3.937-2.442-3.937c-1.446,0-2.442,1.575-2.442,3.937c0,2.378,0.996,3.952,2.442,3.952
		C193.829,16.795,194.842,15.221,194.842,12.843z"/>
	<path d="M212.6,11.205c0,2.297,1.719,4.867,3.728,5.831l-0.659,0.932c-1.59-0.803-2.988-2.522-3.631-4.482
		c-0.658,2.121-2.12,4.001-3.727,4.835l-0.691-0.931c2.009-0.996,3.824-3.727,3.824-6.185V9.196h-3.31V8.216h7.712v0.979H212.6
		V11.205z M221.26,13.582h-2.41v7.519h-1.174V6.738h1.174v5.848h2.41V13.582z"/>
	<path d="M235.614,13.855v0.98h-12.997v-0.98h5.912v-1.719h-4.258V7.38h9.72v0.98h-8.563v2.811h8.659v0.964h-4.387v1.719H235.614z
		 M234.024,18.498c0,1.655-1.849,2.587-4.918,2.587c-3.067,0-4.898-0.932-4.898-2.587c0-1.638,1.831-2.586,4.898-2.586
		C232.176,15.912,234.024,16.86,234.024,18.498z M232.835,18.498c0-1.044-1.398-1.638-3.729-1.638c-2.313,0-3.727,0.594-3.727,1.638
		c0,1.06,1.414,1.655,3.727,1.655C231.437,20.153,232.835,19.558,232.835,18.498z"/>
	<path d="M242.369,17.213c1.351-0.064,2.7-0.161,3.969-0.353l0.081,0.867c-3.085,0.546-6.491,0.578-8.998,0.578l-0.192-0.996
		c1.173,0,2.538,0,3.969-0.048v-1.638c-1.671-0.193-2.779-1.189-2.779-2.619c0-1.607,1.365-2.667,3.356-2.667
		c2.025,0,3.375,1.06,3.375,2.667c0,1.446-1.093,2.426-2.78,2.619V17.213z M246.082,9.469h-8.613V8.505h3.729V6.738h1.172v1.767
		h3.713V9.469z M241.774,14.723c1.367,0,2.267-0.691,2.267-1.719c0-1.044-0.899-1.736-2.267-1.736c-1.333,0-2.248,0.691-2.248,1.736
		C239.526,14.032,240.441,14.723,241.774,14.723z M250.708,13.871h-2.313v7.229h-1.173V6.738h1.173v6.153h2.313V13.871z"/>
	<path d="M261.623,10.658c0,2.587,1.719,5.205,3.742,6.186l-0.69,0.948c-1.623-0.835-2.988-2.603-3.631-4.659
		c-0.627,2.169-2.01,4.033-3.615,4.917l-0.738-0.932c2.024-1.045,3.759-3.808,3.759-6.459V7.991h1.174V10.658z M268.451,6.722
		v14.396h-1.174V12.65h-3.454v-0.98h3.454V6.722H268.451z"/>
	<path d="M273.439,7.942v3.856h4.385V7.942h1.157v9.688h-6.699V7.942H273.439z M273.439,16.651h4.385v-3.904h-4.385V16.651z
		 M283.158,6.706v14.412h-1.173V6.706H283.158z"/>
	<path d="M299.249,18.145v0.98h-13.045v-0.98H299.249z M298.028,14.996c-2.105-0.514-4.434-2.072-5.366-4.209
		c-0.899,2.137-3.214,3.695-5.334,4.209l-0.53-0.98c2.362-0.466,5.253-2.651,5.253-5.157V7.75h1.237v1.108
		c0,2.506,2.893,4.691,5.255,5.157L298.028,14.996z"/>
</g>
<g>
	<path d="M103.235,53.199v1.44H77.541v-1.44H103.235z M97.955,35.346H80.453v-1.44h19.198v2.528c0,3.391,0,7.583-1.152,13.918
		l-1.695-0.224c1.151-6.015,1.151-10.399,1.151-13.694V35.346z"/>
	<path d="M110.98,50.641c4.575,0,8.959-0.225,14.335-1.057l0.159,1.439c-5.439,0.865-9.823,1.057-14.494,1.057h-2.272V41.617h11.231
		v-6.72h-11.327v-1.472h12.991v9.631h-11.199v7.584H110.98z M130.083,30.674v28.445h-1.696V30.674H130.083z"/>
	<path d="M139.877,50.385c5.503,0,9.151-0.225,13.406-1.024l0.225,1.472c-4.416,0.832-8.063,1.023-13.631,1.023h-2.145V33.489
		h13.151v1.44h-11.455v15.455H139.877z M163.043,43.761h-4.992v15.358h-1.695V30.674h1.695V42.32h4.992V43.761z"/>
	<path d="M182.244,45.553c-3.328-1.12-6.304-3.616-7.487-6.816c-1.185,3.424-4.096,6.049-7.487,7.328l-0.864-1.376
		c3.968-1.407,7.455-4.928,7.455-9.151v-1.408h-6.976v-1.408H182.5v1.408h-6.943v1.408c0,4.031,3.552,7.359,7.52,8.672
		L182.244,45.553z M187.332,47.536h1.663V58.64h-17.95V47.536h1.695v3.872h14.592V47.536z M187.332,52.816H172.74v4.383h14.592
		V52.816z M188.995,30.674v15.358H187.3V30.674H188.995z"/>
</g>
</svg>
